<?xml version="1.0" standalone="no"?>
<!DOCTYPE svg PUBLIC "-//W3C//DTD SVG 20010904//EN"
 "http://www.w3.org/TR/2001/REC-SVG-20010904/DTD/svg10.dtd">
<svg version="1.0" xmlns="http://www.w3.org/2000/svg"
width="24px" height="24px" viewBox="0 0 50.000000 50.000000"
 preserveAspectRatio="xMidYMid meet">

<g transform="translate(0.000000,50.000000) scale(0.100000,-0.100000)"
fill="#000000" stroke="none">
<path d="M170 445 l0 -45 80 0 80 0 0 45 0 45 -80 0 -80 0 0 -45z"/>
<path d="M64 457 c-2 -7 -3 -105 -2 -217 l3 -205 185 0 185 0 0 215 0 215 -42
3 c-40 3 -43 1 -43 -22 0 -19 5 -26 20 -26 19 0 20 -7 20 -170 l0 -170 -140 0
-140 0 0 170 c0 163 1 170 20 170 15 0 20 7 20 25 0 23 -4 25 -40 25 -24 0
-43 -5 -46 -13z"/>
<path d="M296 321 c-3 -4 3 -16 13 -25 21 -19 37 -7 27 19 -6 16 -32 20 -40 6z"/>
<path d="M217 241 c-96 -101 -65 -130 35 -33 58 56 59 58 40 75 -18 17 -21 15
-75 -42z"/>
</g>
</svg>
